<svg height="472pt" viewBox="-67 0 471 472" width="472pt" xmlns="http://www.w3.org/2000/svg"><path d="m336.5 168c0-92.785156-75.214844-168-168-168s-168 75.214844-168 168c0 120 152 208 152 208l-8 32h48l-8-32s152-88 152-208zm0 0" fill="#e94f4f"/><path d="m86.101562 70.121094-10.3125-12.242188c5.195313-4.378906 10.691407-8.386718 16.445313-12l8.488281 13.601563c-5.117187 3.199219-10.003906 6.753906-14.621094 10.640625zm0 0" fill="#f26666"/><path d="m43.027344 235.792969c-11.722656-20.703125-18.089844-44.003907-18.527344-67.792969-.035156-36.476562 13.832031-71.597656 38.777344-98.214844l11.695312 10.917969c-22.171875 23.65625-34.5 54.875-34.472656 87.296875.449219 21.136719 6.160156 41.832031 16.617188 60.207031zm0 0" fill="#f26666"/><path d="m160.5 408h16v64h-16zm0 0" fill="#dbdbd9"/><path d="m336.5 168c.011719-48.222656-20.773438-94.109375-57.03125-125.902344-21.402344 151.765625-130.878906 233.597656-205.496094 272.375 23.734375 23.445313 50.082032 44.089844 78.527344 61.527344l-8 32h48l-8-32s152-88 152-208zm0 0" fill="#e04646"/></svg>